M48
;DRILL file {KiCad 4.0.7} date 01/08/18 12:43:32
;FORMAT={-:-/ absolute / metric / decimal}
FMAT,2
METRIC,TZ
T1C0.800
T2C1.000
T3C3.000
%
G90
G05
M71
T1
X106.8Y-132.3
X125.798Y-146.219
T2
X99.58Y-139.445
X99.58Y-141.985
X99.58Y-144.525
X101.5Y-123.34
X101.5Y-125.88
X101.5Y-128.42
X101.55Y-120.8
X106.8Y-117.06
X109.34Y-117.06
X109.34Y-132.3
X111.88Y-117.06
X111.88Y-132.3
X114.42Y-117.06
X114.42Y-132.3
X116.96Y-117.06
X116.96Y-132.3
X119.5Y-117.06
X119.5Y-132.3
X122.04Y-117.06
X122.04Y-132.3
X124.58Y-117.06
X124.58Y-132.3
X125.798Y-138.599
X127.12Y-117.06
X127.12Y-132.3
X128.338Y-138.599
X128.338Y-146.219
X129.4Y-105.16
X129.4Y-107.7
X129.66Y-117.06
X129.66Y-132.3
X130.878Y-138.599
X130.878Y-146.219
X131.94Y-105.16
X131.94Y-107.7
X132.2Y-117.06
X132.2Y-132.3
X133.418Y-138.599
X133.418Y-146.219
X134.48Y-105.16
X134.48Y-107.7
X134.74Y-117.06
X134.74Y-132.3
X135.958Y-138.599
X135.958Y-146.219
X137.02Y-105.16
X137.02Y-107.7
X137.28Y-117.06
X137.28Y-132.3
X138.498Y-138.599
X138.498Y-146.219
X139.56Y-105.16
X139.56Y-107.7
X139.82Y-117.06
X139.82Y-132.3
X141.038Y-138.599
X141.038Y-146.219
X142.36Y-117.06
X142.36Y-132.3
X143.578Y-138.599
X143.578Y-146.219
X144.9Y-117.06
X144.9Y-132.3
X146.118Y-138.599
X146.118Y-146.219
X147.44Y-117.06
X147.44Y-132.3
X149.98Y-117.06
X149.98Y-132.3
X152.52Y-117.06
X152.52Y-132.3
X155.06Y-117.06
X155.06Y-132.3
X160.6Y-106.9
X160.6Y-109.44
X160.6Y-111.98
X160.6Y-114.52
X160.6Y-117.06
X160.6Y-119.6
X160.6Y-122.14
X160.6Y-124.68
X160.6Y-127.22
X160.6Y-129.76
X160.6Y-132.3
X160.6Y-134.84
X160.6Y-137.38
X160.6Y-139.92
X160.6Y-142.46
X160.6Y-145.
T3
X100.24Y-106.595
X103.24Y-111.295
X106.24Y-106.595
T0
M30
